<svg id="wave" style="transform:rotate(0deg); transition: 0.3s" viewBox="0 0 1440 490" version="1.1" xmlns="http://www.w3.org/2000/svg"><defs><linearGradient id="sw-gradient-0" x1="0" x2="0" y1="1" y2="0"><stop stop-color="rgba(109, 218, 72, 1)" offset="0%"></stop><stop stop-color="rgba(109, 218, 72, 1)" offset="100%"></stop></linearGradient></defs><path style="transform:translate(0, 0px); opacity:1" fill="url(#sw-gradient-0)" d="M0,0L48,65.3C96,131,192,261,288,294C384,327,480,261,576,261.3C672,261,768,327,864,367.5C960,408,1056,425,1152,432.8C1248,441,1344,441,1440,367.5C1536,294,1632,147,1728,114.3C1824,82,1920,163,2016,204.2C2112,245,2208,245,2304,228.7C2400,212,2496,180,2592,204.2C2688,229,2784,310,2880,351.2C2976,392,3072,392,3168,375.7C3264,359,3360,327,3456,326.7C3552,327,3648,359,3744,351.2C3840,343,3936,294,4032,294C4128,294,4224,343,4320,302.2C4416,261,4512,131,4608,98C4704,65,4800,131,4896,138.8C4992,147,5088,98,5184,138.8C5280,180,5376,310,5472,367.5C5568,425,5664,408,5760,359.3C5856,310,5952,229,6048,228.7C6144,229,6240,310,6336,310.3C6432,310,6528,229,6624,220.5C6720,212,6816,278,6864,310.3L6912,343L6912,490L6864,490C6816,490,6720,490,6624,490C6528,490,6432,490,6336,490C6240,490,6144,490,6048,490C5952,490,5856,490,5760,490C5664,490,5568,490,5472,490C5376,490,5280,490,5184,490C5088,490,4992,490,4896,490C4800,490,4704,490,4608,490C4512,490,4416,490,4320,490C4224,490,4128,490,4032,490C3936,490,3840,490,3744,490C3648,490,3552,490,3456,490C3360,490,3264,490,3168,490C3072,490,2976,490,2880,490C2784,490,2688,490,2592,490C2496,490,2400,490,2304,490C2208,490,2112,490,2016,490C1920,490,1824,490,1728,490C1632,490,1536,490,1440,490C1344,490,1248,490,1152,490C1056,490,960,490,864,490C768,490,672,490,576,490C480,490,384,490,288,490C192,490,96,490,48,490L0,490Z"></path><defs><linearGradient id="sw-gradient-1" x1="0" x2="0" y1="1" y2="0"><stop stop-color="rgba(151.996, 159.745, 81.767, 1)" offset="0%"></stop><stop stop-color="rgba(38.317, 180.236, 73.977, 1)" offset="100%"></stop></linearGradient></defs><path style="transform:translate(0, 50px); opacity:0.9" fill="url(#sw-gradient-1)" d="M0,49L48,81.7C96,114,192,180,288,236.8C384,294,480,343,576,359.3C672,376,768,359,864,326.7C960,294,1056,245,1152,220.5C1248,196,1344,196,1440,171.5C1536,147,1632,98,1728,81.7C1824,65,1920,82,2016,130.7C2112,180,2208,261,2304,253.2C2400,245,2496,147,2592,138.8C2688,131,2784,212,2880,253.2C2976,294,3072,294,3168,261.3C3264,229,3360,163,3456,147C3552,131,3648,163,3744,204.2C3840,245,3936,294,4032,302.2C4128,310,4224,278,4320,261.3C4416,245,4512,245,4608,261.3C4704,278,4800,310,4896,269.5C4992,229,5088,114,5184,98C5280,82,5376,163,5472,171.5C5568,180,5664,114,5760,73.5C5856,33,5952,16,6048,32.7C6144,49,6240,98,6336,163.3C6432,229,6528,310,6624,302.2C6720,294,6816,196,6864,147L6912,98L6912,490L6864,490C6816,490,6720,490,6624,490C6528,490,6432,490,6336,490C6240,490,6144,490,6048,490C5952,490,5856,490,5760,490C5664,490,5568,490,5472,490C5376,490,5280,490,5184,490C5088,490,4992,490,4896,490C4800,490,4704,490,4608,490C4512,490,4416,490,4320,490C4224,490,4128,490,4032,490C3936,490,3840,490,3744,490C3648,490,3552,490,3456,490C3360,490,3264,490,3168,490C3072,490,2976,490,2880,490C2784,490,2688,490,2592,490C2496,490,2400,490,2304,490C2208,490,2112,490,2016,490C1920,490,1824,490,1728,490C1632,490,1536,490,1440,490C1344,490,1248,490,1152,490C1056,490,960,490,864,490C768,490,672,490,576,490C480,490,384,490,288,490C192,490,96,490,48,490L0,490Z"></path></svg>