<svg id="wave" style="transform:rotate(0deg); transition: 0.3s" viewBox="0 0 1440 490" version="1.1" xmlns="http://www.w3.org/2000/svg"><defs><linearGradient id="sw-gradient-0" x1="0" x2="0" y1="1" y2="0"><stop stop-color="rgba(109, 218, 72, 1)" offset="0%"></stop><stop stop-color="rgba(109, 218, 72, 1)" offset="100%"></stop></linearGradient></defs><path style="transform:translate(0, 0px); opacity:1" fill="url(#sw-gradient-0)" d="M0,294L48,302.2C96,310,192,327,288,351.2C384,376,480,408,576,416.5C672,425,768,408,864,400.2C960,392,1056,392,1152,375.7C1248,359,1344,327,1440,318.5C1536,310,1632,327,1728,318.5C1824,310,1920,278,2016,253.2C2112,229,2208,212,2304,187.8C2400,163,2496,131,2592,147C2688,163,2784,229,2880,277.7C2976,327,3072,359,3168,343C3264,327,3360,261,3456,245C3552,229,3648,261,3744,294C3840,327,3936,359,4032,375.7C4128,392,4224,392,4320,383.8C4416,376,4512,359,4608,359.3C4704,359,4800,376,4896,392C4992,408,5088,425,5184,408.3C5280,392,5376,343,5472,294C5568,245,5664,196,5760,155.2C5856,114,5952,82,6048,81.7C6144,82,6240,114,6336,130.7C6432,147,6528,147,6624,155.2C6720,163,6816,180,6864,187.8L6912,196L6912,490L6864,490C6816,490,6720,490,6624,490C6528,490,6432,490,6336,490C6240,490,6144,490,6048,490C5952,490,5856,490,5760,490C5664,490,5568,490,5472,490C5376,490,5280,490,5184,490C5088,490,4992,490,4896,490C4800,490,4704,490,4608,490C4512,490,4416,490,4320,490C4224,490,4128,490,4032,490C3936,490,3840,490,3744,490C3648,490,3552,490,3456,490C3360,490,3264,490,3168,490C3072,490,2976,490,2880,490C2784,490,2688,490,2592,490C2496,490,2400,490,2304,490C2208,490,2112,490,2016,490C1920,490,1824,490,1728,490C1632,490,1536,490,1440,490C1344,490,1248,490,1152,490C1056,490,960,490,864,490C768,490,672,490,576,490C480,490,384,490,288,490C192,490,96,490,48,490L0,490Z"></path><defs><linearGradient id="sw-gradient-1" x1="0" x2="0" y1="1" y2="0"><stop stop-color="rgba(151.996, 159.745, 81.767, 1)" offset="0%"></stop><stop stop-color="rgba(38.317, 180.236, 73.977, 1)" offset="100%"></stop></linearGradient></defs><path style="transform:translate(0, 50px); opacity:0.9" fill="url(#sw-gradient-1)" d="M0,343L48,334.8C96,327,192,310,288,294C384,278,480,261,576,285.8C672,310,768,376,864,408.3C960,441,1056,441,1152,416.5C1248,392,1344,343,1440,310.3C1536,278,1632,261,1728,228.7C1824,196,1920,147,2016,163.3C2112,180,2208,261,2304,318.5C2400,376,2496,408,2592,400.2C2688,392,2784,343,2880,285.8C2976,229,3072,163,3168,163.3C3264,163,3360,229,3456,253.2C3552,278,3648,261,3744,220.5C3840,180,3936,114,4032,73.5C4128,33,4224,16,4320,8.2C4416,0,4512,0,4608,32.7C4704,65,4800,131,4896,163.3C4992,196,5088,196,5184,212.3C5280,229,5376,261,5472,269.5C5568,278,5664,261,5760,261.3C5856,261,5952,278,6048,253.2C6144,229,6240,163,6336,179.7C6432,196,6528,294,6624,318.5C6720,343,6816,294,6864,269.5L6912,245L6912,490L6864,490C6816,490,6720,490,6624,490C6528,490,6432,490,6336,490C6240,490,6144,490,6048,490C5952,490,5856,490,5760,490C5664,490,5568,490,5472,490C5376,490,5280,490,5184,490C5088,490,4992,490,4896,490C4800,490,4704,490,4608,490C4512,490,4416,490,4320,490C4224,490,4128,490,4032,490C3936,490,3840,490,3744,490C3648,490,3552,490,3456,490C3360,490,3264,490,3168,490C3072,490,2976,490,2880,490C2784,490,2688,490,2592,490C2496,490,2400,490,2304,490C2208,490,2112,490,2016,490C1920,490,1824,490,1728,490C1632,490,1536,490,1440,490C1344,490,1248,490,1152,490C1056,490,960,490,864,490C768,490,672,490,576,490C480,490,384,490,288,490C192,490,96,490,48,490L0,490Z"></path></svg>