<svg id="wave" style="transform:rotate(180deg); transition: 0.3s" viewBox="0 0 1440 490" version="1.1" xmlns="http://www.w3.org/2000/svg"><defs><linearGradient id="sw-gradient-0" x1="0" x2="0" y1="1" y2="0"><stop stop-color="rgba(109, 218, 72, 1)" offset="0%"></stop><stop stop-color="rgba(109, 218, 72, 1)" offset="100%"></stop></linearGradient></defs><path style="transform:translate(0, 0px); opacity:1" fill="url(#sw-gradient-0)" d="M0,98L40,98C80,98,160,98,240,81.7C320,65,400,33,480,24.5C560,16,640,33,720,106.2C800,180,880,310,960,334.8C1040,359,1120,278,1200,253.2C1280,229,1360,261,1440,294C1520,327,1600,359,1680,359.3C1760,359,1840,327,1920,318.5C2000,310,2080,327,2160,343C2240,359,2320,376,2400,359.3C2480,343,2560,294,2640,277.7C2720,261,2800,278,2880,310.3C2960,343,3040,392,3120,392C3200,392,3280,343,3360,334.8C3440,327,3520,359,3600,318.5C3680,278,3760,163,3840,147C3920,131,4000,212,4080,236.8C4160,261,4240,229,4320,253.2C4400,278,4480,359,4560,343C4640,327,4720,212,4800,147C4880,82,4960,65,5040,122.5C5120,180,5200,310,5280,318.5C5360,327,5440,212,5520,212.3C5600,212,5680,327,5720,383.8L5760,441L5760,490L5720,490C5680,490,5600,490,5520,490C5440,490,5360,490,5280,490C5200,490,5120,490,5040,490C4960,490,4880,490,4800,490C4720,490,4640,490,4560,490C4480,490,4400,490,4320,490C4240,490,4160,490,4080,490C4000,490,3920,490,3840,490C3760,490,3680,490,3600,490C3520,490,3440,490,3360,490C3280,490,3200,490,3120,490C3040,490,2960,490,2880,490C2800,490,2720,490,2640,490C2560,490,2480,490,2400,490C2320,490,2240,490,2160,490C2080,490,2000,490,1920,490C1840,490,1760,490,1680,490C1600,490,1520,490,1440,490C1360,490,1280,490,1200,490C1120,490,1040,490,960,490C880,490,800,490,720,490C640,490,560,490,480,490C400,490,320,490,240,490C160,490,80,490,40,490L0,490Z"></path><defs><linearGradient id="sw-gradient-1" x1="0" x2="0" y1="1" y2="0"><stop stop-color="rgba(151.996, 159.745, 81.767, 1)" offset="0%"></stop><stop stop-color="rgba(38.317, 180.236, 73.977, 1)" offset="100%"></stop></linearGradient></defs><path style="transform:translate(0, 50px); opacity:0.9" fill="url(#sw-gradient-1)" d="M0,441L40,375.7C80,310,160,180,240,163.3C320,147,400,245,480,253.2C560,261,640,180,720,155.2C800,131,880,163,960,163.3C1040,163,1120,131,1200,114.3C1280,98,1360,98,1440,89.8C1520,82,1600,65,1680,49C1760,33,1840,16,1920,40.8C2000,65,2080,131,2160,204.2C2240,278,2320,359,2400,367.5C2480,376,2560,310,2640,302.2C2720,294,2800,343,2880,318.5C2960,294,3040,196,3120,171.5C3200,147,3280,196,3360,187.8C3440,180,3520,114,3600,81.7C3680,49,3760,49,3840,57.2C3920,65,4000,82,4080,81.7C4160,82,4240,65,4320,81.7C4400,98,4480,147,4560,196C4640,245,4720,294,4800,269.5C4880,245,4960,147,5040,155.2C5120,163,5200,278,5280,294C5360,310,5440,229,5520,228.7C5600,229,5680,310,5720,351.2L5760,392L5760,490L5720,490C5680,490,5600,490,5520,490C5440,490,5360,490,5280,490C5200,490,5120,490,5040,490C4960,490,4880,490,4800,490C4720,490,4640,490,4560,490C4480,490,4400,490,4320,490C4240,490,4160,490,4080,490C4000,490,3920,490,3840,490C3760,490,3680,490,3600,490C3520,490,3440,490,3360,490C3280,490,3200,490,3120,490C3040,490,2960,490,2880,490C2800,490,2720,490,2640,490C2560,490,2480,490,2400,490C2320,490,2240,490,2160,490C2080,490,2000,490,1920,490C1840,490,1760,490,1680,490C1600,490,1520,490,1440,490C1360,490,1280,490,1200,490C1120,490,1040,490,960,490C880,490,800,490,720,490C640,490,560,490,480,490C400,490,320,490,240,490C160,490,80,490,40,490L0,490Z"></path></svg>