<svg xmlns="http://www.w3.org/2000/svg" version="1.1" xmlns:xlink="http://www.w3.org/1999/xlink" xmlns:svgjs="http://svgjs.com/svgjs" width="1392" height="557" preserveAspectRatio="none" viewBox="0 0 1392 557">
    <g mask="url(&quot;#SvgjsMask1315&quot;)" fill="none">
        <rect width="1392" height="557" x="0" y="0" fill="rgba(115, 171, 78, 1)"></rect>
        <path d="M0,536.312C98.481,518.343,130.497,388.063,216.868,337.453C309.242,283.326,458.75,326.387,514.377,234.908C568.439,146.002,481.974,35.717,462.505,-66.498C444.11,-163.075,467.957,-275.403,403.103,-349.291C338.299,-423.123,222.209,-409.282,130.568,-444.674C28.077,-484.256,-62.856,-603.848,-167.237,-569.558C-272.455,-534.993,-266.082,-377.047,-336.215,-291.332C-403.358,-209.271,-541.03,-184.364,-566.601,-81.465C-592.078,21.056,-513.537,118.893,-460.921,210.496C-412.492,294.811,-353.885,370.98,-274.485,427.106C-192.413,485.121,-98.874,554.353,0,536.312" fill="#619042"></path>
        <path d="M1392 1149.307C1500.775 1155.845 1576.774 1045.748 1664.951 981.721 1747.691 921.642 1840.597 873.635 1892.7649999999999 785.692 1948.251 692.155 1991.092 580.278 1965.836 474.495 1941.0720000000001 370.773 1824.637 322.73900000000003 1761.684 236.66699999999997 1690.851 139.82100000000003 1682-10.123000000000047 1573.666-61.698999999999955 1465.058-113.40599999999995 1333.394-66.78599999999994 1222.58-19.993000000000052 1119.455 23.552999999999997 1049.313 112.16500000000002 971.454 192.59500000000003 888.799 277.98 776.619 348.65999999999997 752.971 465.121 729.036 582.992 771.967 711.86 846.911 805.934 916.033 892.7 1045.489 891.0029999999999 1139.351 950.13 1231.964 1008.471 1282.74 1142.74 1392 1149.307" fill="#88ba67"></path>
    </g>
    <defs>
        <mask id="SvgjsMask1315">
            <rect width="1392" height="557" fill="#ffffff"></rect>
        </mask>
    </defs>
</svg>