<svg xmlns="http://www.w3.org/2000/svg" version="1.1" xmlns:xlink="http://www.w3.org/1999/xlink" xmlns:svgjs="http://svgjs.com/svgjs" width="1426" height="560" preserveAspectRatio="none" viewBox="0 0 1426 560">
    <g mask="url(&quot;#SvgjsMask1207&quot;)" fill="none">
        <rect width="1426" height="560" x="0" y="0" fill="rgba(115, 171, 78, 1)"></rect>
        <path d="M0,494.516C94.459,498.943,185.381,463.329,265.995,413.897C347.843,363.708,411.664,292.71,462.217,211.087C518.446,120.299,582.509,23.959,573.398,-82.442C564.143,-190.523,488.586,-280.014,413.461,-358.266C341.125,-433.613,250.288,-482.926,152.835,-520.51C47.957,-560.957,-62.312,-610.829,-171.43,-583.836C-281.962,-556.493,-357.114,-460.076,-433.35,-375.5C-510.986,-289.37,-609.738,-204.49,-617.644,-88.804C-625.47,25.714,-543.679,125.315,-473.798,216.376C-415.24,292.682,-333.39,340.999,-250.441,389.694C-170.784,436.456,-92.267,490.192,0,494.516" fill="#619042"></path>
        <path d="M1426 1154.3600000000001C1535.99 1154.212 1626.6390000000001 1075.289 1715.495 1010.463 1799.708 949.024 1892.566 887.1949999999999 1927.041 788.818 1960.578 693.117 1921.377 590.724 1897.089 492.26800000000003 1875.025 402.828 1856.775 308.39599999999996 1792.297 242.60199999999998 1729.432 178.454 1637.074 159.67000000000002 1549.91 138.003 1466.056 117.15800000000002 1382.868 114.101 1296.624 119.387 1187.355 126.084 1065.114 104.93700000000001 979.3489999999999 172.974 890.977 243.079 858.517 364.512 846.273 476.648 834.273 586.55 858.754 697.797 911.432 794.995 961.972 888.249 1049.0439999999999 950.51 1136.005 1011.242 1226.21 1074.239 1315.975 1154.508 1426 1154.3600000000001" fill="#88ba67"></path>
    </g>
    <defs>
        <mask id="SvgjsMask1207">
            <rect width="1426" height="560" fill="#ffffff"></rect>
        </mask>
    </defs>
</svg>